<?xml version="1.0" encoding="UTF-8"?>
<svg id="Camada_2" data-name="Camada 2" xmlns="http://www.w3.org/2000/svg" viewBox="0 0 479.56 479.56">
  <defs>
    <style>
      .cls-1 {
        fill: #fff;
      }

      .cls-2 {
        fill: #dec78e;
      }
    </style>
  </defs>
  <g id="Camada_1-2" data-name="Camada 1">
    <g>
      <polygon class="cls-1" points="110.09 291.45 120.88 291.45 104.34 254.63 16.75 255.07 16.75 291.48 110.09 291.48 110.09 291.45"/>
      <path class="cls-2" d="m451.07,0H28.49C12.76,0,0,12.76,0,28.49v132.33l39.29-87.48,142.76,317.88h57.27c83.25,0,150.98-67.73,150.98-150.98s-67.73-150.98-150.98-150.98h-72.1v-15h72.1c91.52,0,165.98,74.46,165.98,165.98s-74.46,165.98-165.98,165.98h-66.86l-4.24-9.7h-.14l-.65-1.46-52.35-116.55H29.39v-15h78.95L39.3,109.79,0,197.89v253.18c0,15.74,12.76,28.49,28.49,28.49h422.58c15.74,0,28.49-12.76,28.49-28.49V28.49c0-15.74-12.76-28.49-28.49-28.49Z"/>
    </g>
  </g>
</svg>